<svg xmlns="http://www.w3.org/2000/svg" width="256" height="256" viewBox="0 0 100 100"><rect width="100" height="100" rx="20" fill="#ff0f00"></rect><path d="M44.05 73.04L44.05 73.04L11.47 73.04Q10.26 73.04 9.71 72.50Q9.17 71.95 9.17 70.74L9.17 70.74L9.17 29.26Q9.17 28.05 9.71 27.50Q10.26 26.96 11.47 26.96L11.47 26.96L21.39 26.96Q22.61 26.96 23.15 27.50Q23.70 28.05 23.70 29.26L23.70 29.26L23.70 60.94L32.46 60.94L32.46 50.58Q32.46 49.36 33.01 48.82Q33.55 48.27 34.77 48.27L34.77 48.27L44.05 48.27Q45.26 48.27 45.81 48.82Q46.35 49.36 46.35 50.58L46.35 50.58L46.35 70.74Q46.35 71.95 45.81 72.50Q45.26 73.04 44.05 73.04ZM88.53 73.04L88.53 73.04L55.95 73.04Q54.74 73.04 54.19 72.50Q53.65 71.95 53.65 70.74L53.65 70.74L53.65 29.26Q53.65 28.05 54.19 27.50Q54.74 26.96 55.95 26.96L55.95 26.96L65.87 26.96Q67.09 26.96 67.63 27.50Q68.18 28.05 68.18 29.26L68.18 29.26L68.18 60.94L76.94 60.94L76.94 50.58Q76.94 49.36 77.49 48.82Q78.03 48.27 79.25 48.27L79.25 48.27L88.53 48.27Q89.74 48.27 90.29 48.82Q90.83 49.36 90.83 50.58L90.83 50.58L90.83 70.74Q90.83 71.95 90.29 72.50Q89.74 73.04 88.53 73.04Z" fill="#ffffff"></path></svg>